<?xml version="1.0" encoding="utf-8"?>
<!-- Generator: Adobe Illustrator 26.0.2, SVG Export Plug-In . SVG Version: 6.00 Build 0)  -->
<svg version="1.1" id="Layer_1" xmlns="http://www.w3.org/2000/svg" xmlns:xlink="http://www.w3.org/1999/xlink" x="0px" y="0px"
     width="24px" height="24px" viewBox="0 0 24 24" enable-background="new 0 0 24 24" xml:space="preserve">
<rect y="0" fill="none" width="24" height="24"/>
    <path d="M17.9,10.8C18,9.9,17.9,9,17.7,8c-0.5-2.6-0.8-6-0.8-6c-1.6,0-3.3,0-5,0S8.6,2,7,2c0,0-0.3,3.4-0.8,6C6,9,5.9,9.9,6,10.8
   c0.3,2.7,2.5,4.7,5,5.1V20H7v2h10v-2h-4v-4.1C15.4,15.5,17.6,13.6,17.9,10.8z M12,4h3.2c0.1,0.9,0.2,1.9,0.4,3H8.4
   c0.2-1.1,0.3-2.1,0.4-3H12z M8,10.6c-0.1-0.5,0-1,0-1.6h7.8c0.1,0.6,0.1,1.1,0,1.6c-0.2,2-1.9,3.1-3.4,3.4c-0.2,0-0.3,0-0.5,0
   c-0.3,0-0.5,0-0.6,0C9.9,13.7,8.3,12.6,8,10.6z"/>
</svg>