<svg xmlns="http://www.w3.org/2000/svg" width="108" height="45" viewBox="0 0 108 45"><g fill="#002DA1" fill-rule="evenodd" transform="translate(1 1)"><path fill-rule="nonzero" d="M10.1727423,27.4347431 C9.54552116,27.0045475 9.40831654,26.7698954 9.50631984,26.3005912 C10.3883495,22.1746248 11.7799963,17.3447021 13.3088478,13.1209641 C13.7596629,11.8890405 14.1124748,10.8526603 14.1124748,10.833106 C14.1124748,10.5984538 7.21304268,13.4533879 3.46931672,15.2328331 L0.940831654,16.4060937 L0.470415827,15.9367894 C0.215607254,15.682583 0,15.3892678 0,15.2914961 C0,14.8808549 6.82102949,11.8890405 11.9564023,10.0509322 L14.7984979,9.03410641 L15.7393295,6.80491132 C17.7581975,2.01409732 18.6990291,0 18.934237,0 C19.0714417,0 19.4046529,0.195543429 19.6790621,0.449749886 L20.1494779,0.87994543 L18.5814252,4.45839018 C17.7189962,6.43337881 17.0721744,8.09549795 17.1309764,8.15416098 C17.1897783,8.21282401 18.189412,7.99772624 19.3458509,7.66530241 C27.6761312,5.26011824 36.7120352,3.73487949 45.9635464,3.12869486 C49.7464737,2.89404275 57.037919,2.8744884 57.037919,3.10914052 C57.037919,3.18735789 54.7642425,3.32423829 52.0005496,3.38290132 C41.6318007,3.61755343 31.831471,5.24056389 20.6786957,8.60391087 C15.9353361,10.0313779 16.288148,9.81628013 15.5041216,11.8499318 C13.7204616,16.5820828 12.1524089,21.6075489 11.2703792,25.4988631 C11.0155706,26.6525693 10.760762,27.6498408 10.7215607,27.6889495 C10.6823594,27.7280582 10.4471515,27.6107322 10.1727423,27.4347431 Z"/><path fill-rule="nonzero" d="M18.0312061,20.4929513 C16.6983612,19.5934516 16.2671467,17.5989086 17.0511731,15.8781264 C17.7959982,14.2355616 20.0108727,12.319236 21.1673116,12.319236 C21.8729353,12.319236 22.7353643,13.3360618 22.7353643,14.1768986 C22.7353643,16.0150068 20.5204898,17.9117781 18.5408232,17.7553433 L17.7371962,17.6966803 L17.6783942,18.4984084 C17.5411896,20.3169623 19.070041,20.7471578 21.5005228,19.5543429 C22.9705723,18.8308322 25.459856,16.5038654 26.498691,14.8613006 C27.2631167,13.6684857 28.1451463,12.7885402 29.2231826,12.1628013 C30.0464103,11.6543884 30.7324334,11.6152797 31.2812519,12.0259209 C31.5948624,12.2801273 31.6144631,12.3387904 31.3596545,12.5147794 C31.2028492,12.6125512 30.987242,12.7298772 30.869638,12.7689859 C30.7716347,12.8276489 30.869638,13.062301 31.1244466,13.3360618 C31.4968591,13.746703 31.5556611,14.0204638 31.5556611,15.4870396 C31.5556611,17.4620282 31.7712683,17.794452 32.6924993,17.3251478 C33.5549284,16.8753979 35.8678062,14.313779 36.7302352,12.8472033 C37.141849,12.1236926 37.5534629,11.5370623 37.6122649,11.5370623 C37.6906675,11.5370623 37.9258754,11.6739427 38.1610833,11.8303774 L38.5922978,12.1236926 L37.9062748,14.1182356 C37.5338622,15.2132788 37.2398523,16.1909959 37.2398523,16.2887676 C37.2398523,16.6211915 37.6514662,16.1909959 38.8471064,14.6070941 C39.4939282,13.7271487 40.1015486,12.9254206 40.1799513,12.8472033 C40.2583539,12.7689859 40.5327631,12.886312 40.826773,13.1014097 C41.3167895,13.4924966 41.3167895,13.5316053 41.0815816,14.2355616 C40.7287697,15.2132788 40.4935618,16.6994088 40.6895684,16.5625284 C40.7875717,16.5038654 41.5715981,15.62392 42.4340271,14.5875398 C43.2964561,13.570714 44.0608818,12.7298772 44.1196838,12.7103229 C44.1980864,12.7103229 44.452895,12.8667576 44.6685023,13.062301 C45.0605155,13.3751705 45.0801161,13.4729422 44.9037102,14.2746703 C44.6489016,15.3501592 44.629301,17.0122783 44.8645089,17.3838108 C45.315324,18.0877672 48.1182183,16.992724 51.9991489,14.6070941 C53.1555878,13.8835834 54.1552215,13.2969532 54.1944228,13.2969532 C54.9196472,13.2969532 51.8031423,15.3892678 48.6670368,17.0318327 C47.1773867,17.794452 46.4325616,18.0682128 45.6093339,18.1464302 C44.5900996,18.2246476 44.4724957,18.1855389 43.9040766,17.6380173 C43.3944594,17.11005 43.3160568,16.9145066 43.3160568,15.9563438 C43.3160568,15.3501592 43.2376541,14.8613006 43.1396508,14.8613006 C43.0416475,14.8613006 42.3556245,15.5261482 41.6304001,16.3278763 C40.9051757,17.1296044 40.1995519,17.794452 40.081948,17.794452 C39.9447433,17.794452 39.6899348,17.6184629 39.4939282,17.4033652 C39.160717,17.0318327 39.160717,16.6211915 39.5331295,15.115507 C39.7095354,14.3528877 39.3175222,14.6266485 38.5726972,15.799909 C38.1610833,16.425648 37.5730635,17.1882674 37.2398523,17.5011369 L36.6518326,18.0682128 L36.1422154,17.5793543 C35.6521989,17.0709413 35.6521989,17.0709413 35.9462088,15.9172351 C36.1030141,15.2914961 36.220618,14.7439745 36.1814167,14.7244202 C36.1422154,14.6853115 35.6129976,15.2523874 35.0053772,15.9758981 C33.6529317,17.5793543 32.6336974,18.3810823 31.9868756,18.3810823 C31.6732651,18.3810823 31.2224499,18.0877672 30.7128327,17.5597999 C29.9876083,16.8167349 29.9288064,16.7776262 29.7327998,17.1296044 C29.6151958,17.3251478 29.1643806,17.8726694 28.7135655,18.3419736 C28.105945,18.9286039 27.7139318,19.163256 27.3219187,19.163256 C26.5966943,19.163256 25.9302718,18.6939518 25.6166613,17.9899955 L25.3814534,17.4229195 L24.0094072,18.5961801 C22.0885426,20.2582992 21.1869122,20.7471578 19.8540674,20.8644839 C18.8936351,20.9427012 18.6192259,20.8840382 18.0312061,20.4929513 Z M28.4587569,17.6380173 C29.3015853,16.8362892 29.9680077,15.4283765 30.124813,14.0400182 C30.2620176,12.944975 30.2620176,12.944975 29.1251793,13.7662574 C28.8311694,14.0009095 28.223549,14.6462028 27.8119351,15.2328331 C26.9103048,16.4843111 26.5378923,17.6184629 26.8515028,18.1855389 C27.1063114,18.6743975 27.5179252,18.5375171 28.4587569,17.6380173 Z M19.4816549,16.5429741 C20.7752984,15.799909 22.3237505,13.2969532 21.5201235,13.2969532 C20.7556977,13.2969532 18.6388265,15.4088222 18.1880113,16.6407458 C17.9920047,17.1687131 18.4820212,17.1296044 19.4816549,16.5429741 Z"/><path d="M13,43 L17.0930233,43 L17.0930233,36.2 L23.5651163,36.2 L23.5651163,32.8 L17.0930233,32.8 L17.0930233,29.4 L24,29.4 L24,26 L13,26 L13,43 Z M26,43 L34,43 L34,39.8428571 L31.8542274,39.8428571 L31.8542274,29.1571429 L34,29.1571429 L34,26 L26,26 L26,29.1571429 L28.1457726,29.1571429 L28.1457726,39.8428571 L26,39.8428571 L26,43 Z M37,43 L40.6,43 L40.6,35.9571429 L40.264,33.82 C40.216,33.5771429 40.504,33.4314286 40.648,33.6742857 L45.88,43 L49,43 L49,26 L45.4,26 L45.4,33.0428571 L45.76,35.18 C45.808,35.4228571 45.52,35.5685714 45.376,35.3257143 L40.12,26 L37,26 L37,43 Z M52.1745703,43 L60.9103098,43 L60.9103098,39.6 L56.1229271,39.6 L56.1229271,26 L52.1745703,26 L52.1745703,43 Z M72.4317538,43 L71.592728,39.0657143 L67.2988899,39.0657143 L66.4598641,43 L62.5361845,43 L65.9416422,29.1571429 L64.1402044,29.1571429 L64.1402044,26 L72.1603043,26 L76.3554334,43 L72.4317538,43 Z M67.9898524,35.811276 L70.9017655,35.811276 L69.8406446,30.7643979 L69.667904,29.2134061 C69.6432268,28.9179791 69.2483911,28.9179791 69.2237139,29.2134061 L69.0509733,30.7643979 L67.9898524,35.811276 Z M78.3803775,43 L82.0819621,43 L82.0819621,35.9571429 L81.7364809,33.82 C81.6871264,33.5771429 81.9832532,33.4314286 82.1313165,33.6742857 L87.5109527,43 L90.7189927,43 L90.7189927,26 L87.0174081,26 L87.0174081,33.0428571 L87.3875666,35.18 C87.436921,35.4228571 87.1407943,35.5685714 86.9927309,35.3257143 L81.5884175,26 L78.3803775,26 L78.3803775,43 Z M94,43 L94,26 L99.034155,26 C103.327993,26 105.598298,28.1614286 105.894425,31.5857143 C105.968457,32.46 106.017811,33.5528571 106.017811,34.5 C106.017811,35.4471429 105.968457,36.54 105.894425,37.4142857 C105.622975,40.8385714 103.327993,43 99.034155,43 L94,43 Z M97.9261552,39.7995407 L99.0119533,39.7995407 C101.134195,39.7995407 102.07193,38.4947381 102.24467,36.8206517 C102.343379,35.835895 102.343379,35.2450409 102.343379,34.3833788 C102.343379,33.5217167 102.343379,32.9554816 102.24467,31.946106 C102.096607,30.2720196 101.134195,28.9672169 99.0119533,28.9672169 L97.9261552,28.9672169 L97.9261552,39.7995407 Z"/></g></svg>